<?xml version="1.0" encoding="UTF-8" standalone="no"?><!DOCTYPE svg PUBLIC "-//W3C//DTD SVG 1.1//EN" "http://www.w3.org/Graphics/SVG/1.1/DTD/svg11.dtd"><svg width="100%" height="100%" viewBox="0 0 1067 1067" version="1.1" xmlns="http://www.w3.org/2000/svg" xmlns:xlink="http://www.w3.org/1999/xlink" xml:space="preserve" xmlns:serif="http://www.serif.com/" style="fill-rule:evenodd;clip-rule:evenodd;stroke-linejoin:round;stroke-miterlimit:2;"><rect id="White-No-Background" serif:id="White No Background" x="0" y="0" width="1066.67" height="1066.67" style="fill:none;"/><g id="White-No-Background1" serif:id="White No Background"><path id="path2" d="M432.221,425.233c78.8,65.896 119.862,102.913 119.862,108.05c0,5.134 -41.075,42.246 -119.633,108.1c-65.796,55.155 -121.512,100.284 -123.813,100.284c-8.579,-0 -12.804,-17.163 -12.804,-52c0,-42.084 -7.221,-32.484 78.15,-103.904c32.642,-27.313 59.35,-50.888 59.35,-52.392c0,-1.508 -26.716,-25.088 -59.375,-52.408c-85.233,-71.305 -78.125,-61.846 -78.125,-103.963c0,-34.525 4.225,-52 12.575,-52c2.175,0 57.888,45.104 123.813,100.233m365.696,276.85l-0,37.5l-241.667,0l-1.229,-32.966c-0.675,-18.129 -0.254,-35.5 0.937,-38.605c1.763,-4.6 24.321,-5.437 122.063,-4.533l119.896,1.104l-0,37.5" style="fill:#fff;"/></g></svg>